<svg xmlns="http://www.w3.org/2000/svg" xmlns:xlink="http://www.w3.org/1999/xlink" viewBox="0 0 318.92 65.58"><defs><style>.cls-1{fill:url(#linear-gradient);}.cls-2{fill:url(#linear-gradient-2);}.cls-3{fill:url(#linear-gradient-3);}.cls-4{fill:url(#linear-gradient-4);}.cls-5{fill:url(#linear-gradient-5);}</style><linearGradient id="linear-gradient" y1="32.95" x2="46.27" y2="32.95" gradientUnits="userSpaceOnUse"><stop offset="0.02" stop-color="#ec008c"/><stop offset="0.05" stop-color="#ea0188"/><stop offset="0.34" stop-color="#d70e61"/><stop offset="0.6" stop-color="#c91744"/><stop offset="0.83" stop-color="#c11c33"/><stop offset="1" stop-color="#be1e2d"/></linearGradient><linearGradient id="linear-gradient-2" x1="47.17" y1="32.84" x2="127.66" y2="32.84" xlink:href="#linear-gradient"/><linearGradient id="linear-gradient-3" x1="128.83" y1="32.9" x2="182.12" y2="32.9" xlink:href="#linear-gradient"/><linearGradient id="linear-gradient-4" x1="171.14" y1="32.68" x2="262.61" y2="32.68" xlink:href="#linear-gradient"/><linearGradient id="linear-gradient-5" x1="264.9" y1="32.9" x2="318.92" y2="32.9" xlink:href="#linear-gradient"/></defs><g id="Layer_2" data-name="Layer 2"><g id="Layer_1-2" data-name="Layer 1"><path class="cls-1" d="M46.27,8.42q0,1.76-5.8,8.64h-.81c-.6-.24-1-1.13-1.13-2.66a12.91,12.91,0,0,0-3.19-7.58,8.49,8.49,0,0,0-6.49-2.95,8.3,8.3,0,0,0-6.12,2.59,8.45,8.45,0,0,0-2.56,6.18,11.86,11.86,0,0,0,1.62,5.6q1.63,3,8.44,9.48T39,38.06a16.29,16.29,0,0,1,1.94,7.31q0,8-7,14.12a23.91,23.91,0,0,1-16.27,6.09Q10,65.58,5,62T0,56.18q0-1.26,2.75-5.85t3.15-4.6a2.34,2.34,0,0,1,2,.84,6.62,6.62,0,0,1,.84,3.08q.68,7,3.4,9.68A9.7,9.7,0,0,0,19.27,62a11.83,11.83,0,0,0,8.32-3.3A10.2,10.2,0,0,0,31.15,51a10.08,10.08,0,0,0-1.38-4.79Q28.39,43.69,22,37.57T13.59,27.23a19.34,19.34,0,0,1-2-8.23A18.78,18.78,0,0,1,16.88,6.17Q22.15.32,30.88.32a19,19,0,0,1,11,3Q46.27,6.4,46.27,8.42Z"/><path class="cls-2" d="M127.66,54.56a50.8,50.8,0,0,1-10,8.36,17.78,17.78,0,0,1-9.21,2.66,10.91,10.91,0,0,1-8.93-4.68q-3.63-4.68-3.63-13.68a68.28,68.28,0,0,1,.92-9.77q-6.72.54-8.24.63-2.85,14.85-10,21.18a23.63,23.63,0,0,1-16.13,6.32,18.41,18.41,0,0,1-11-3.08q-4.34-3.07-4.33-6c0-1.41,1.08-3,3.22-4.84S54,49,54.83,49c1.17,0,1.75,1.27,1.75,3.79q0,9.32,6.26,9.31,4.59,0,7.63-5.13t4.83-17a21.32,21.32,0,0,0-10.71,5.26A12.21,12.21,0,0,1,64,41.32,25.19,25.19,0,0,1,76.5,34a47.77,47.77,0,0,1,3.94-11.88Q82.83,17.56,92.55,8A22,22,0,0,1,84.9,9.81a15,15,0,0,1-4.84-1,14.82,14.82,0,0,0-4.66-1,8,8,0,0,0-6.26,2.77,8.56,8.56,0,0,0-2.43,5.65q0,2.88,3.06,5.27c.93.57,1.4,1.11,1.4,1.62,0,.9-.6,2-1.8,3.35s-2.33,2-3.38,2-2.25-.83-3.24-2.49a10.63,10.63,0,0,1-1.49-5.52q0-6.66,6.53-13.37t13-6.7a25,25,0,0,1,5.41,1.14A24.29,24.29,0,0,0,91.6,2.61,8.33,8.33,0,0,0,97.23.09q3.42,1.8,3.42,2.25,0,.63-2.72,3.35a20.22,20.22,0,0,0-4.46,7.77q-1.75,5-3.68,18.81a86.13,86.13,0,0,0,9-.81,72.06,72.06,0,0,1,4.44-11.74,103.59,103.59,0,0,1,5.47-9.61c2.06-3.23,3.63-5.2,4.73-5.92a27.53,27.53,0,0,1,7-2.48Q125.77.31,125.81.32q.54,0,.54.27c0,.45-.67,1.61-2,3.48a93,93,0,0,0-5.82,10.14,99.34,99.34,0,0,0-6.43,15.59,24.86,24.86,0,0,0,10-4.32,1.19,1.19,0,0,1,.72.79,13.88,13.88,0,0,1,.14,2.58q-3.87,4.68-12.45,6.67a70.38,70.38,0,0,0-1.84,12.42,11.42,11.42,0,0,0,1.93,7,6.14,6.14,0,0,0,5.17,2.59,9.69,9.69,0,0,0,5.24-1.68,34.85,34.85,0,0,0,6.72-6.47Z"/><path class="cls-3" d="M174.38,7.88a21.44,21.44,0,0,1-8,1.8,14.55,14.55,0,0,1-5-1.06,13.55,13.55,0,0,0-4.28-1.06,8.16,8.16,0,0,0-5.94,2.57,8.16,8.16,0,0,0-2.57,5.94A5.77,5.77,0,0,0,151.43,21c1,.75,1.48,1.4,1.48,1.94a5.53,5.53,0,0,1-1.75,3.31c-1.18,1.3-2.29,1.95-3.34,1.95s-2.29-.81-3.28-2.43a10.32,10.32,0,0,1-1.49-5.49q0-6.75,6.48-13.37T162.59.32a15.76,15.76,0,0,1,5,1.1A16.58,16.58,0,0,0,173,2.52,7.83,7.83,0,0,0,177.62,1a3.25,3.25,0,0,1,1.53-.63A4,4,0,0,1,181,1c.76.47,1.14,1,1.14,1.51,0,.3-.79,1.34-2.38,3.11a21.81,21.81,0,0,0-5,8.57,110.67,110.67,0,0,0-2.82,14.38,129.66,129.66,0,0,1-3.17,15.87,34.72,34.72,0,0,1-5.35,11.12A23.88,23.88,0,0,1,154.85,63a23.43,23.43,0,0,1-10.71,2.47c-4.59,0-8.3-1-11.1-3.17s-4.21-4.13-4.21-6c0-1.11,1.08-2.61,3.24-4.48S135.64,49,136.3,49a1.49,1.49,0,0,1,1.62,1,11.73,11.73,0,0,1,.32,3.29A10.52,10.52,0,0,0,140,59.58a5.54,5.54,0,0,0,4.66,2.4c2.85,0,5.28-1.5,7.27-4.5s3.63-8.48,4.89-16.43,2.95-14.06,5.08-18.32S168.2,13.52,174.38,7.88Z"/><path class="cls-4" d="M262.61,54.51q-10.08,10.85-18.37,10.85-5,0-7.67-4.86t-2.63-13q0-6.3,2.58-17.33a74.68,74.68,0,0,1,6.69-18.55l2.61-4.68A52.1,52.1,0,0,0,237,19.15q-3.42,6.65-8.17,18.57A156.3,156.3,0,0,1,221.69,54,49.74,49.74,0,0,1,217,61a12.61,12.61,0,0,1-4,3.53,15.73,15.73,0,0,1-6,.81c-1.11,0-1.67-.3-1.67-.9,0-.06.2-1,.6-2.84a87.31,87.31,0,0,0,1.21-8.8q.63-6,.89-20.57t4.23-24.87q-4.23,4.82-8.65,22.42l-1.13,4.41Q197.87,52.53,191.87,59t-11.76,6.41a9.49,9.49,0,0,1-6.26-2.25,6.61,6.61,0,0,1-2.71-5.18q0-2.25,3.25-5t4.1-2.79a1.28,1.28,0,0,1,1.29.68,20.37,20.37,0,0,1,.82,3.71c.33,2,.83,3.34,1.51,4a3.62,3.62,0,0,0,2.55.92q3.47,0,7.67-6.95T200,30.92l1.31-5.44a85.21,85.21,0,0,1,3.11-10.63,45,45,0,0,1,4.06-7.92q3.66-5.67,4.49-6a11.24,11.24,0,0,1,3.13-.63A41.53,41.53,0,0,1,220.7,0c.6,0,.9.35.9,1a13.84,13.84,0,0,1-.28,2,86.44,86.44,0,0,0-.84,12.65l.09,12.06q.09,15.77-2.52,25.44,2.38-2.88,6.93-14.86,6.57-17,12-25.48A47.71,47.71,0,0,1,243.14,5q3.63-3.76,5-4a44.74,44.74,0,0,1,8.06-.9c.81,0,1.21.23,1.21.68A14.61,14.61,0,0,1,256,5a119.53,119.53,0,0,0-6.53,21.43q-3,13.5-3.06,21.51,0,9,5.54,9.05,4.5,0,10.71-7.66Z"/><path class="cls-5" d="M297.22,1a62.37,62.37,0,0,0-14.88,20.81,54.89,54.89,0,0,0-4.65,21.32q0,6.57,2.61,10.37a8.15,8.15,0,0,0,7.07,3.81q8.91,0,18.56-15.6t9.66-28.92a13.2,13.2,0,0,0-1.28-6.3,3.81,3.81,0,0,0-3.39-2.34q-3.9,0-7.25,5.89t-3.34,10.49q0,3.29,3.06,3.69c.84.09,1.26.5,1.26,1.22a5.44,5.44,0,0,1-2,3.89,6.15,6.15,0,0,1-4.25,1.91,5.46,5.46,0,0,1-4.54-2.45A10,10,0,0,1,292,22.69q0-7.79,5.88-15.08t12-7.29a7.79,7.79,0,0,1,6.62,3.3q2.43,3.32,2.43,9.12,0,11.21-6.21,23.86a65.37,65.37,0,0,1-15.53,20.77q-9.31,8.13-17.56,8.12a12.78,12.78,0,0,1-10.55-5.4q-4.17-5.4-4.17-13.91a50,50,0,0,1,3.63-18.32A63.1,63.1,0,0,1,278,11.32q5.81-7.27,9.24-9.14c2.28-1.24,5.62-1.86,10-1.86Z"/></g></g></svg>